<svg height="443pt" viewBox="0 -39 443.76925 443" width="443pt" xmlns="http://www.w3.org/2000/svg"><g fill="#9bc9ff"><path d="m213.398438 253.402344-22.625-22.632813 5.65625 5.664063zm0 0"/><path d="m196.429688 236.433594-79.199219 79.199218c-12.5 12.496094-32.761719 12.496094-45.257813 0l-22.632812-22.625c-12.496094-12.496093-12.496094-32.757812 0-45.253906l113.144531-113.144531c10.304687-10.332031 26.304687-12.359375 38.863281-4.929687 2.351563 1.339843 4.507813 2.996093 6.402344 4.929687l16.976562 16.96875 5.652344 5.65625c12.5 12.496094 12.5 32.757813 0 45.253906l-11.316406 11.3125 16.972656 16.96875c1.894532 1.929688 4.050782 3.589844 6.402344 4.925781l10.558594-10.605468c24.992187-24.992188 24.992187-65.511719 0-90.503906l-5.65625-5.664063-16.96875-16.96875c-1.890625-1.890625-3.894532-3.664063-6-5.320313-25.484375-19.78125-61.707032-17.5-84.511719 5.320313l-113.132813 113.136719c-24.996093 24.992187-24.996093 65.519531 0 90.511718l22.621094 22.625c24.996094 24.992188 65.519532 24.992188 90.511719 0l79.539063-79.539062c-2.105469-1.648438-4.109376-3.421875-6-5.308594zm0 0"/><path d="m394.421875 27.128906c-24.996094-24.996094-65.519531-24.996094-90.511719 0l-79.539062 79.558594c2.105468 1.65625 4.109375 3.433594 6 5.320312l16.96875 16.96875 79.199218-79.199218c12.5-12.496094 32.761719-12.496094 45.257813 0l22.632813 22.625c12.496093 12.496094 12.496093 32.757812 0 45.253906l-113.144532 113.113281c-10.308594 10.332031-26.304687 12.359375-38.863281 4.925781-2.351563-1.335937-4.507813-2.996093-6.402344-4.925781l-16.976562-16.96875-5.65625-5.65625c-12.496094-12.496093-12.496094-32.757812 0-45.253906l11.320312-11.3125-16.964843-16.96875c-1.894532-1.933594-4.050782-3.589844-6.402344-4.929687l-10.566406 10.609374c-24.992188 24.992188-24.992188 65.511719 0 90.503907l22.625 22.632812c1.890624 1.890625 3.894531 3.664063 6 5.3125 25.480468 19.78125 61.703124 17.503907 84.511718-5.3125l113.175782-113.136719c24.992187-24.992187 24.992187-65.519531 0-90.511718zm0 0"/><path d="m219.050781 213.800781 16.976563 16.96875zm0 0"/><path d="m213.398438 208.144531 5.652343 5.65625zm0 0"/></g><path d="m422.683594 44.097656-22.621094-22.625c-28.121094-28.117187-73.707031-28.117187-101.824219 0l-74.753906 74.816406c-28.460937-17.875-65.496094-13.710937-89.28125 10.03125l-113.117187 113.167969c-28.113282 28.117188-28.113282 73.699219 0 101.816407l22.621093 22.625c28.121094 28.117187 73.707031 28.117187 101.824219 0l74.800781-74.839844c28.441407 17.882812 65.472657 13.722656 89.234375-10.03125l113.117188-113.167969c28.113281-28.117187 28.113281-73.699219 0-101.816406zm-288.480469 288.496094c-21.867187 21.871094-57.328125 21.871094-79.199219 0l-22.625-22.625c-21.871094-21.871094-21.871094-57.328125 0-79.199219l113.136719-113.136719c19.945313-19.957031 51.621094-21.964843 73.921875-4.679687 1.847656 1.457031 3.613281 3.019531 5.277344 4.679687l22.625 22.65625c21.828125 21.886719 21.828125 57.3125 0 79.199219l-5.65625 5.65625-11.3125-11.320312 5.65625-5.65625c15.621094-15.621094 15.621094-40.945313 0-56.566407l-22.621094-22.65625-8-6.167968-5.691406-2.761719c-14.792969-5.828125-31.636719-2.324219-42.871094 8.929687l-113.152344 113.144532c-15.59375 15.632812-15.59375 40.9375 0 56.566406l22.632813 22.625c1.898437 1.902344 3.984375 3.605469 6.222656 5.089844.378906.246094.800781.390625 1.179687.621094 1.847657 1.179687 3.789063 2.199218 5.804688 3.058593.097656 0 .203125.046875.296875.085938 9.496094 3.828125 20.105469 3.828125 29.601563 0 .078124 0 .167968-.039063.238281-.070313 2.03125-.863281 3.988281-1.890625 5.847656-3.074218.378906-.222657.800781-.367188 1.144531-.605469 2.242188-1.484375 4.324219-3.1875 6.222656-5.089844l73.546876-73.535156 11.3125 11.3125zm231.929687-277.183594 22.625 22.625c9.375 9.371094 9.375 24.570313 0 33.941406l-113.128906 113.113282c-1.105468 1.078125-2.3125 2.050781-3.601562 2.902344-.496094.335937-1.015625.617187-1.535156.914062-.757813.4375-1.539063.832031-2.34375 1.183594-.6875.296875-1.367188.574218-2.070313.800781-.707031.222656-1.351563.375-2.035156.535156-.679688.160157-1.550781.382813-2.34375.488281-1.347657.175782-2.710938.230469-4.070313.160157-.089844 0-.183594 0-.273437 0l1.296875-1.296875c28.070312-28.140625 28.070312-73.691406 0-101.832032l73.542968-73.535156c9.375-9.371094 24.566407-9.371094 33.9375 0zm-154.113281 130.109375c-.011719-6.367187 2.519531-12.476562 7.03125-16.972656l5.664063-5.65625c9.375 9.371094 9.375 24.570313 0 33.941406l-5.664063 5.65625c-4.507812-4.492187-7.039062-10.601562-7.03125-16.96875zm-134.382812 124.449219-22.625-22.625c-9.375-9.371094-9.375-24.570312 0-33.941406l113.128906-113.113282c1.066406-1.054687 2.234375-2.003906 3.480469-2.839843.375-.257813.800781-.464844 1.175781-.695313.859375-.53125 1.753906-1.003906 2.679687-1.417968.488282-.214844.984376-.398438 1.488282-.574219.863281-.316407 1.742187-.582031 2.632812-.800781.542969-.128907 1.085938-.246094 1.640625-.34375.878907-.132813 1.765625-.21875 2.65625-.257813.839844-.042969 1.683594-.042969 2.527344 0l-1.304687 1.304687c-28.070313 28.140626-28.070313 73.691407 0 101.832032l-73.542969 73.472656c-9.375 9.371094-24.566407 9.371094-33.9375 0zm333.75-175.367188-113.132813 113.144532c-19.945312 19.957031-51.621094 21.964844-73.921875 4.679687-1.847656-1.457031-3.613281-3.019531-5.28125-4.679687l-22.621093-22.65625c-21.828126-21.886719-21.828126-57.3125 0-79.199219l5.65625-5.65625 11.3125 11.320313-5.65625 5.65625c-15.621094 15.621093-15.621094 40.945312 0 56.566406l22.621093 22.632812 8.136719 6.238282 5.601562 2.6875c.519532.203124 1.046876.335937 1.597657.511718 1.363281.484375 2.753906.890625 4.160156 1.21875.648437.152344 1.289063.277344 1.945313.390625 1.417968.246094 2.84375.417969 4.28125.511719.574218.039062 1.152343.097656 1.726562.113281.304688 0 .601562.0625.902344.0625.640625 0 1.265625-.160156 1.90625-.191406 1.527344-.058594 3.050781-.207031 4.558594-.441406.9375-.152344 1.847656-.359375 2.769531-.582031 1.453125-.34375 2.882812-.773438 4.289062-1.28125.871094-.320313 1.742188-.632813 2.597657-1.007813 1.480468-.671875 2.917968-1.433594 4.304687-2.28125.695313-.414063 1.414063-.796875 2.089844-1.230469 2.0625-1.394531 3.996093-2.972656 5.773437-4.71875l113.074219-113.121094c15.59375-15.632812 15.59375-40.9375 0-56.566406l-22.632813-22.625c-1.902343-1.898437-3.984374-3.605468-6.226562-5.089844-.359375-.230468-.75-.367187-1.109375-.589843-1.871094-1.191407-3.835937-2.226563-5.878906-3.089844l-.128907-.039063c-11.847656-4.816406-25.289062-3.609374-36.089843 3.238282-.285157.179687-.605469.289062-.894531.480468-2.242188 1.484376-4.332032 3.1875-6.234376 5.089844l-73.542968 73.535156-11.3125-11.3125 73.539062-73.535156c21.867188-21.871094 57.328125-21.871094 79.199219 0l22.621094 22.625c21.875 21.867188 21.875 57.328125 0 79.199219zm0 0" fill="#1e81ce"/></svg>