<svg height="480pt" viewBox="-40 0 480 480.04512" width="480pt" xmlns="http://www.w3.org/2000/svg"><g fill="#9bc9ff"><path d="m221.289062 197.597656c-2.402343.550782-4.890624.992188-7.375 1.351563 2.492188-.359375 4.949219-.800781 7.375-1.351563zm0 0"/><path d="m200.023438 200.046875c-3.578126-.019531-7.148438-.234375-10.703126-.640625 3.554688.40625 7.125.621094 10.703126.640625zm0 0"/><path d="m175.464844 196.84375c-2.625-.695312-5.199219-1.511719-7.738282-2.398438 2.539063.855469 5.097657 1.671876 7.738282 2.398438zm0 0"/><path d="m210.734375 199.40625c-3.554687.40625-7.128906.621094-10.710937.640625 3.582031-.019531 7.15625-.234375 10.710937-.640625zm0 0"/><path d="m186.128906 198.949219c-2.488281-.359375-4.945312-.800781-7.359375-1.351563 2.414063.550782 4.871094.992188 7.359375 1.351563zm0 0"/><path d="m232.304688 194.398438c-2.527344.910156-5.101563 1.710937-7.71875 2.398437 2.621093-.683594 5.195312-1.484375 7.71875-2.398437zm0 0"/><path d="m175.464844 196.84375c1.085937.289062 2.191406.539062 3.304687.800781 2.398438.550781 4.871094.992188 7.359375 1.351563 1.0625.152344 2.121094.335937 3.199219.457031 7.113281.851563 14.304687.851563 21.417969 0 1.070312-.121094 2.117187-.304687 3.199218-.457031 2.488282-.359375 4.949219-.800782 7.375-1.351563 1.105469-.246093 2.207032-.496093 3.296876-.800781 2.621093-.699219 5.195312-1.496094 7.71875-2.398438.703124-.257812 1.433593-.457031 2.136718-.726562 3.355469-1.289062 6.636719-2.765625 9.824219-4.425781 40.085937-20.8125 60.199219-66.785157 48.28125-110.351563-11.921875-43.566406-52.640625-72.894531-97.738281-70.402344-45.097656 2.496094-82.332032 36.136719-89.375 80.753907-7.039063 44.613281 18.023437 88.089843 60.160156 104.351562.695312.265625 1.414062.464844 2.109375.71875 2.53125.9375 5.089844 1.753907 7.730469 2.480469zm0 0"/><path d="m256.425781 192.523438c-7.03125-2.117188-14.570312-1.785157-21.386719.945312-.199218.074219-.40625.128906-.597656.199219-.707031.273437-1.433594.472656-2.136718.730469-2.527344.910156-5.101563 1.710937-7.71875 2.398437-1.089844.289063-2.195313.535156-3.296876.800781-2.402343.550782-4.882812.992188-7.375 1.351563-1.058593.152343-2.105468.335937-3.203124.457031-7.113282.851562-14.300782.851562-21.414063 0-1.074219-.121094-2.128906-.304688-3.199219-.457031-2.488281-.359375-4.945312-.800781-7.363281-1.351563-1.109375-.25-2.207031-.496094-3.300781-.800781-2.625-.695313-5.203125-1.511719-7.738282-2.398437-.695312-.257813-1.414062-.457032-2.109374-.722657-.195313-.078125-.402344-.125-.59375-.207031-6.84375-2.730469-14.410157-3.054688-21.464844-.917969-80.542969 24.796875-135.5 99.21875-135.503906 183.496094v64c0 17.671875 14.328124 32 32 32h320c17.675781 0 32-14.328125 32-32v-64c-.003907-84.3125-55.007813-158.753906-135.597657-183.523437zm0 0"/><path d="m234.425781 193.644531c-.707031.273438-1.433593.472657-2.136719.730469.71875-.234375 1.445313-.433594 2.136719-.730469zm0 0"/><path d="m213.914062 198.949219c-1.058593.152343-2.105468.335937-3.203124.457031 1.097656-.121094 2.113281-.304688 3.203124-.457031zm0 0"/><path d="m165.625 193.644531c.695312.265625 1.414062.464844 2.109375.71875-.703125-.222656-1.421875-.421875-2.109375-.71875zm0 0"/><path d="m224.585938 196.84375c-1.089844.289062-2.195313.539062-3.296876.800781 1.136719-.296875 2.207032-.542969 3.296876-.800781zm0 0"/><path d="m178.769531 197.597656c-1.113281-.25-2.21875-.496094-3.304687-.800781 1.09375.304687 2.160156.550781 3.304687.800781zm0 0"/><path d="m189.320312 199.40625c-1.070312-.121094-2.128906-.304688-3.199218-.457031 1.101562.152343 2.128906.335937 3.199218.457031zm0 0"/></g><path d="m341.433594 234.621094c-21.949219-21.851563-48.648438-38.339844-78.015625-48.175782 35.308593-27.152343 49.40625-73.773437 35.0625-115.941406-14.34375-42.167968-53.949219-70.519531-98.492188-70.503906-44.539062.015625-84.128906 28.390625-98.445312 70.566406-14.320313 42.179688-.191407 88.789063 35.136719 115.917969-81.820313 26.890625-137 103.433594-136.6562505 189.5625v64c.0273437 22.078125 17.9218745 39.972656 40.0000005 40h320c22.082031-.027344 39.972656-17.921875 40-40v-64c.105468-53.070313-20.984376-103.980469-58.589844-141.425781zm-229.410156-130.574219c.003906-43.207031 31.371093-80.015625 74.027343-86.878906 42.65625-6.859375 83.980469 18.261719 97.53125 59.285156s-4.679687 85.816406-43.03125 105.710937c-3.019531 1.570313-6.128906 2.957032-9.320312 4.152344-.453125.175782-.925781.304688-1.382813.472656-2.667968.949219-5.355468 1.769532-8.0625 2.464844-.703125.175782-1.410156.335938-2.113281.496094-2.625.589844-5.265625 1.0625-7.917969 1.414062-.625.082032-1.25.183594-1.875.257813-6.550781.722656-13.160156.722656-19.710937 0-.617188-.074219-1.222657-.175781-1.839844-.257813-2.667969-.351562-5.332031-.824218-8-1.421874-.695313-.152344-1.390625-.3125-2.078125-.488282-2.746094-.691406-5.453125-1.519531-8.113281-2.480468-.457031-.160157-.921875-.289063-1.367188-.457032-3.195312-1.203125-6.316406-2.59375-9.34375-4.167968-29.195312-15.089844-47.492187-45.242188-47.402343-78.101563zm272 336c0 13.253906-10.746094 24-24 24h-320c-13.253907 0-24-10.746094-24-24v-64c-.351563-80.882813 52.464843-152.394531 129.871093-175.839844 2.273438-.695312 4.636719-1.046875 7.007813-1.042969 3.148437.003907 6.265625.597657 9.195312 1.746094.214844.085938.4375.144532.65625.222656 1.085938.425782 2.214844.746094 3.308594 1.128907 2.402344.800781 4.800781 1.597656 7.203125 2.230469 1.550781.410156 3.117187.761718 4.695313 1.105468 2.085937.449219 4.191406.800782 6.3125 1.136719 1.597656.238281 3.199218.503906 4.863281.671875 2.816406.292969 5.648437.429688 8.488281.496094.800781 0 1.597656.144531 2.398438.144531.800781 0 1.601562-.128906 2.449218-.144531 2.816406-.066406 5.597656-.210938 8.421875-.496094 1.65625-.167969 3.28125-.433594 4.921875-.679688 2.097656-.3125 4.183594-.679687 6.253906-1.128906 1.601563-.335937 3.152344-.6875 4.707032-1.105468 2.480468-.65625 4.917968-1.429688 7.335937-2.269532 1.039063-.363281 2.09375-.664062 3.117188-1.058594.242187-.09375.503906-.160156.746093-.253906 5.136719-2.050781 10.8125-2.308594 16.113282-.738281 77.226562 23.742187 129.933594 95.082031 129.933594 175.875zm0 0" fill="#1e81ce"/></svg>